# xmcd CD database file
#
# Track frame offsets:
#	150
#	18561
#	34791
#	50039
#	67508
#	86595
#	98930
#	116095
#	134047
#	153176
#	171108
#	187616
#	204617
#
# Disc length: 3090 seconds
#
# Revision: 0
# Processed by: cddbd v1.5.2PL0 Copyright (c) Steve Scherf et al.
# Submitted via: CDex 1.70beta2
#
DISCID=a90c100d
DTITLE=Sonia Johnson - Le carré de nos amours
DYEAR=2010
DGENRE=Jazz
TTITLE0=Embrase-moi
TTITLE1=La tribu des reveuses
TTITLE2=Coeurs solitaires
TTITLE3=Beau comme Basie
TTITLE4=Je suis aveugle
TTITLE5=Ma voix
TTITLE6=Le temps n'arrange rien
TTITLE7=Ma vie est une mer d'huile
TTITLE8=Quand m￪me
TTITLE9=Deux points c'est tout
TTITLE10=Pawnshop Of Love
TTITLE11=J'te dis pas tout
TTITLE12=Tes joues
EXTD=YEAR: 2010
EXTT0=
EXTT1=
EXTT2=
EXTT3=
EXTT4=
EXTT5=
EXTT6=
EXTT7=
EXTT8=
EXTT9=
EXTT10=
EXTT11=
EXTT12=
PLAYORDER=
